<?xml version="1.0" encoding="iso-8859-1"?>
<!-- Generator: Adobe Illustrator 19.0.0, SVG Export Plug-In . SVG Version: 6.00 Build 0)  -->
<svg version="1.1" id="Layer_1" xmlns="http://www.w3.org/2000/svg" xmlns:xlink="http://www.w3.org/1999/xlink" x="0px" y="0px"
	 viewBox="0 0 483.076 483.076" style="enable-background:new 0 0 483.076 483.076;" xml:space="preserve">
<g>
	<path d="M101.111,53.379c0-27.876-22.679-50.556-50.556-50.556S0,25.503,0,53.379c0,27.877,22.679,50.556,50.556,50.556
		S101.111,81.256,101.111,53.379z M50.556,73.935C39.221,73.935,30,64.714,30,53.379s9.221-20.556,20.556-20.556
		s20.556,9.221,20.556,20.556S61.89,73.935,50.556,73.935z"/>
	<path d="M297.253,450.252c-100.933,0-183.047-82.115-183.047-183.047c0-100.933,82.115-183.048,183.047-183.048
		c66.069,0,127.251,35.826,159.671,93.497l26.151-14.701C445.351,95.845,374.148,54.157,297.253,54.157
		c-117.475,0-213.047,95.573-213.047,213.048c0,117.475,95.573,213.047,213.047,213.047c76.895,0,148.097-41.688,185.822-108.796
		l-26.151-14.701C424.504,414.427,363.322,450.252,297.253,450.252z"/>
</g>
<g>
</g>
<g>
</g>
<g>
</g>
<g>
</g>
<g>
</g>
<g>
</g>
<g>
</g>
<g>
</g>
<g>
</g>
<g>
</g>
<g>
</g>
<g>
</g>
<g>
</g>
<g>
</g>
<g>
</g>
</svg>
